# xmcd
# 
# Track frame offsets:
#     150
#     21837
#     36903
#     51515
#     69980
#     88263
#     104314
#     123639
#     142702
#     156331
#     174301
#     185518
#     201440
# 
# Disc length: 2916
# 
# Revision: 1
# Processed by: cddbd v1.5.2PL0 Copyright (c) Steve Scherf et al.
# Submitted via: BonkEnc v1.0.6
# 
DISCID=b90b620d
DTITLE=Varios - Tche Menina
DYEAR=0
DGENRE=
TTITLE0=Criado em galpao
TTITLE1=To voltando pra ficar
TTITLE2=Capricha gaiteiro
TTITLE3=Lago verde azul
TTITLE4=Vida de gaucho
TTITLE5=Estradeiro
TTITLE6=Tropeiros
TTITLE7=Um bagual corcoveador
TTITLE8=Iguaria campeira
TTITLE9=Merceditas
TTITLE10=O cancioneiro das coxilhas
TTITLE11=Sou queixo duro
TTITLE12=O mate
EXTD=Radio Menina FM
EXTT0=
EXTT1=
EXTT2=
EXTT3=
EXTT4=
EXTT5=
EXTT6=
EXTT7=
EXTT8=
EXTT9=
EXTT10=
EXTT11=
EXTT12=
PLAYORDER=
